<svg fill="none" height="32" viewBox="0 0 32 32" width="32" xmlns="http://www.w3.org/2000/svg"><circle cx="16" cy="16" fill="#f7f8f9" r="16"/><g fill="#c2c9d0"><path d="m17.3298 16.4074.6991.2858c.072.0302.1492.0459.2272.0461s.1552-.015.2274-.0449c.0721-.0299.1376-.0738.1928-.1291.0552-.0554.099-.1212.1288-.1936l.551-1.3453c.0301-.0723.0457-.1498.0459-.2281.0002-.0784-.015-.156-.0447-.2285-.0297-.0724-.0734-.1383-.1285-.1937-.0551-.0555-.1206-.0994-.1926-.1294l-.6992-.2857c.0593-.4525.0593-.9107 0-1.3632l.6932-.2916c.0721-.03.1376-.074.1927-.1295.0551-.0554.0988-.1212.1285-.1937.0297-.0724.0449-.1501.0447-.2284-.0002-.0784-.0158-.156-.0459-.2283l-.551-1.3393c-.0299-.0724-.0736-.1381-.1288-.19347s-.1208-.09926-.1929-.12912-.1494-.04511-.2274-.04491c-.078.00021-.1551.01589-.2271.04615l-.6991.29165c-.2755-.36313-.5984-.68746-.9598-.96429l.2844-.70243c.0301-.07229.0457-.1498.0459-.22816s-.015-.156-.0447-.22845-.0734-.13834-.1285-.19379-.1206-.09937-.1927-.12934l-1.333-.55361c-.072-.03025-.1492-.04593-.2272-.04614s-.1552.01504-.2274.0449c-.0721.02987-.1376.07375-.1928.12912s-.0989.12117-.1288.19358l-.2903.70235c-.4501-.06245-.9067-.06245-1.3568 0l-.2903-.70235c-.0298-.07241-.0736-.13821-.1288-.19358s-.1207-.09925-.1928-.12912c-.0721-.02986-.1494-.04511-.2274-.0449s-.1552.01589-.2271.04614l-1.3331.55361c-.0721.02997-.1375.07389-.19264.12934-.05511.05545-.09879.12134-.12852.19379-.02972.07245-.0449.15009-.04469.22845s.01581.15587.04592.22816l.29033.70243c-.36147.27683-.68429.60116-.95983.96429l-.69912-.2857c-.07195-.03025-.14913-.04593-.22713-.04614s-.15527.01504-.22739.04491c-.07211.02986-.13765.07375-.19285.12912-.05519.05541-.09894.12111-.12877.19351l-.551 1.3393c-.02994.0727-.04529.1505-.04509.2292.00019.0786.01591.1564.04621.2289s.07459.1383.13033.1935.12182.0988.19441.1282l.69318.2917c-.06216.4522-.06216.9109 0 1.3631l-.69911.2917c-.07207.03-.13753.0739-.19264.1293-.05511.0555-.09879.1214-.12852.1938-.02972.0725-.0449.1501-.04469.2285.0002.0783.01581.1558.04592.2281l.55693 1.3394c.02983.0724.07358.1382.12877.1935.0552.0554.12074.0993.19285.1291.07212.0299.14939.0452.22739.045.078-.0003.15518-.0159.22713-.0462l.69319-.2917c.2771.3618.59973.6859.95983.9643l-.2844.7024c-.03011.0723-.04571.1499-.04592.2282-.00021.0784.01497.156.04469.2285.02973.0724.07341.1382.12852.1937s.12061.0994.19261.1294l1.339.5536c.0723.03.1499.0455.2281.0453.0783-.0002.1558-.016.2279-.0464.0722-.0305.1376-.075.1926-.131.0549-.056.0983-.1224.1276-.1953l.2844-.6965c.4501.0625.9066.0625 1.3567 0l.2963.7144c.0614.1422.1756.2548.3184.3137.1427.0589.3027.0595.4459.0017l1.3508-.5952c.1416-.0617.2536-.1765.3122-.3199.0587-.1434.0593-.3041.0018-.448l-.2903-.7083c.3571-.2705.6795-.5844.9598-.9346zm-1.1435-2.8095v.2619c-.0733.383-.2224.7473-.4384 1.0714-.0533.0774-.1126.1429-.1659.2084-.0621.0854-.1294.1669-.2014.244-.077.0715-.16.1369-.2429.2024l-.2015.1667c-.1613.1063-.3319.198-.5095.2738-.1788.0707-.3631.1265-.551.1667-.0889 0-.1718 0-.2607 0s-.2074 0-.314 0c-.1067 0-.2074 0-.314 0-.1067 0-.1719 0-.2607 0-.3816-.0759-.7442-.2277-1.0665-.4465-.077-.0476-.1362-.1071-.2073-.1607s-.1659-.1309-.243-.2024c-.077-.0714-.1362-.1607-.2014-.244-.0652-.0834-.1126-.131-.1659-.2024-.2144-.3278-.3651-.6934-.4444-1.0774-.0058-.0873-.0058-.1747 0-.2619-.0058-.1051-.0058-.2104 0-.3155 0-.1072 0-.2084 0-.3155 0-.1072 0-.1726 0-.2619.076-.3851.227-.7513.4444-1.0774.0503-.0715.1057-.1391.1659-.2024.0652-.0833.1244-.1667.1955-.2441.0768-.0724.1579-.1399.2429-.2023.0711-.0536.1304-.1191.2074-.1667.3223-.2188.6849-.3706 1.0664-.4465h.2667c.1026-.0061.2055-.0061.3081 0 .1065-.0058.2133-.0058.3199 0h.2547c.3829.0745.7473.2242 1.0724.4405l.2015.1667c.085.0624.1661.13.2429.2024.072.0771.1393.1586.2014.244.0534.0655.1185.131.1659.2024.2174.3262.3684.6924.4444 1.0774v.2619c.016.1045.0259.2099.0296.3155-.0077.1079-.0215.2152-.0415.3215z"/><path d="m24.2964 19.9843h-.5924c-.104-.23-.2332-.4477-.3852-.6489l.2963-.5119c.0772-.1367.0975-.2985.0565-.4502-.0411-.1516-.1402-.2808-.2757-.3594l-1.0073-.5952c-.136-.0776-.2971-.098-.448-.0568-.151.0413-.2796.1409-.3577.277l-.2963.5119c-.1217-.018-.2443-.0299-.3673-.0356-.123.0057-.2456.0176-.3673.0356l-.3022-.5119c-.0781-.1345-.2056-.2329-.3552-.2741-.1495-.0412-.3091-.0219-.4446.0539l-1.0072.5952c-.1356.0786-.2347.2078-.2757.3594-.0411.1517-.0208.3135.0564.4502l.2963.5119c-.1541.1998-.2834.4177-.3851.6489h-.5925c-.1572 0-.3078.0626-.419.1743-.1111.1116-.1735.263-.1735.4209v1.1905c0 .1579.0624.3092.1735.4209.1112.1116.2618.1744.419.1744h.5925c.1004.2318.2298.4498.3851.6488l-.2963.5119c-.0772.1366-.0975.2984-.0564.4501.041.1517.1401.2809.2757.3594l1.0072.5952c.1348.0763.2939.0965.4433.0565.1495-.04.2774-.1372.3565-.2707l.3022-.5179c.1214.021.2442.033.3673.0358.1232-.0028.2459-.0148.3673-.0358l.2963.5179c.0791.1351.2082.2334.359.2735.1509.0402.3114.0189.4467-.0593l1.0073-.5952c.1355-.0785.2346-.2077.2757-.3594.041-.1517.0207-.3135-.0565-.4501l-.2963-.5119c.1532-.2004.2825-.4182.3852-.6488h.5924c.1572 0 .3079-.0628.419-.1744.1111-.1117.1735-.263.1735-.4209v-1.1905c0-.1579-.0624-.3093-.1735-.4209-.1111-.1117-.2618-.1743-.419-.1743zm-3.3593 2.756c-.4164 0-.8158-.1663-1.1102-.4621-.2945-.2958-.4599-.697-.4599-1.1154 0-.4183.1654-.8196.4599-1.1154.2944-.2958.6938-.462 1.1102-.462s.8157.1662 1.1102.462c.2944.2958.4598.6971.4598 1.1154 0 .2072-.0406.4123-.1195.6036-.0789.1914-.1945.3653-.3403.5118s-.3189.2627-.5094.342c-.1905.0792-.3947.1201-.6008.1201z"/></g></svg>