<svg fill="none" height="32" viewBox="0 0 32 32" width="32" xmlns="http://www.w3.org/2000/svg" xmlns:xlink="http://www.w3.org/1999/xlink"><clipPath id="a"><path d="m8 8h16v16h-16z"/></clipPath><circle cx="16" cy="16" fill="#f7f8f9" r="16"/><g clip-path="url(#a)"><path d="m22.7195 20.0001v-1.9413c-.0398-.5995-.3138-1.1593-.7629-1.5584-.449-.3992-1.0371-.6057-1.6371-.575h-3.52v-2.336h3.5253c.4244 0 .8314-.1685 1.1314-.4686.3001-.3.4686-.707.4686-1.1314v-2.38394c0-.42434-.1685-.83132-.4686-1.13138-.3-.30006-.707-.46862-1.1314-.46862h-8.6666c-.4244 0-.8314.16856-1.1314.46862-.3001.30006-.4686.70704-.4686 1.13138v2.37864c0 .4244.1685.8313.4686 1.1314.3.3.707.4686 1.1314.4686h3.52v2.336h-3.5147c-.6-.0307-1.1881.1758-1.6371.5749-.44906.3992-.72307.959-.7629 1.5584v1.9414c-.37964.1577-.70419.4241-.93288.7657-.22869.3417-.35133.7432-.35247 1.1543.00141.5521.22174 1.0812.61266 1.4711.39093.39.92055.6089 1.47269.6089.5512-.0014 1.0794-.221 1.4692-.6108.3898-.3897.6094-.918.6108-1.4692 0-.4107-.1216-.8121-.3493-1.1538-.2278-.3417-.5516-.6083-.9307-.7662v-1.9414c0-.2933.3733-.5333.8-.5333h3.5147v2.496c-.3791.158-.7029.4246-.9307.7663-.2278.3416-.3493.7431-.3493 1.1537.0014.5512.221 1.0795.6107 1.4692.3898.3898.918.6094 1.4693.6108.5521 0 1.0817-.219 1.4726-.6089.391-.3899.6113-.9189.6127-1.4711-.0011-.4111-.1237-.8127-.3524-1.1543s-.5533-.608-.9329-.7657v-2.496h3.52c.4266 0 .8.2613.8.5333v1.9414c-.3791.1579-.7029.4245-.9307.7662s-.3493.7431-.3493 1.1538c.0014.5512.221 1.0795.6107 1.4692.3898.3898.9181.6094 1.4693.6108.5516 0 1.0807-.2191 1.4707-.6092.3901-.3901.6093-.9192.6093-1.4708.0007-.4074-.1182-.8059-.3419-1.1463-.2238-.3403-.5426-.6075-.9168-.7684zm-9.3813-8.416c-.2122 0-.4157-.0843-.5657-.2343s-.2343-.3535-.2343-.5657.0843-.4157.2343-.5657.3535-.23429.5657-.23429h5.3333c.2122 0 .4156.08429.5657.23429.15.15.2343.3535.2343.5657s-.0843.4157-.2343.5657c-.1501.15-.3535.2343-.5657.2343z" fill="#c2c9d0"/></g></svg>