<svg fill="none" height="32" viewBox="0 0 32 32" width="32" xmlns="http://www.w3.org/2000/svg"><circle cx="16" cy="16" fill="#f7f8f9" r="16"/><g fill="#c2c9d0"><path d="m17.2099 16.8088c.2719-.2729.4246-.6424.4246-1.0277 0-.3852-.1527-.7547-.4246-1.0275-.1339-.135-.2931-.2422-.4686-.3153-.1754-.0731-.3636-.1107-.5537-.1107-.19 0-.3783.0376-.5537.1107-.1755.0731-.3347.1803-.4686.3153l-.5352.5673-1.6056-1.6431-1.8251 1.8357-.5353-.5352c-.1338-.1349-.293-.2421-.4685-.3152s-.36366-.1107-.55374-.1107-.37826.0376-.55371.1107c-.17546.0731-.3347.1803-.46855.3152-.27193.2729-.42461.6424-.42461 1.0277 0 .3852.15268.7547.42461 1.0275l.53522.5353-.6851.6851c-.30105.3063-.46972.7186-.46972 1.148 0 .4295.16867.8418.46972 1.1481l3.02398 3.0347c.1493.1505.3269.2699.5225.3515.1957.0815.4056.1234.6176.1234.2119 0 .4218-.0419.6175-.1234.1956-.0816.3732-.201.5225-.3515l.6797-.6851-.5352-.562c-.2719-.2729-.4246-.6423-.4246-1.0276 0-.3852.1527-.7548.4246-1.0276.1338-.135.2931-.2421.4685-.3152.1755-.0731.3637-.1107.5538-.1107.19 0 .3782.0376.5537.1107s.3347.1802.4685.3152l.5352.5352 1.8305-1.8358-1.6056-1.6324z"/><path d="m22.8352 14.4908.6851-.685c.1529-.1496.2744-.3282.3574-.5253.0829-.1972.1257-.4089.1257-.6228s-.0428-.4256-.1257-.6228c-.083-.1971-.2045-.3757-.3574-.5253l-3.024-3.03468c-.1493-.1505-.3269-.26992-.5225-.35144-.1957-.08151-.4056-.12348-.6175-.12348-.212 0-.4219.04197-.6175.12348-.1957.08152-.3733.20094-.5226.35144l-4.5547 4.57618 1.0276 1.033.0803-.0803c.2101-.2123.4601-.3809.7357-.4959s.5713-.1742.87-.1742c.2986 0 .5943.0592.8699.1742s.5257.2836.7357.4959c.4223.4277.6591 1.0046.6591 1.6057 0 .601-.2368 1.1779-.6591 1.6056l-.0749.075 1.0704 1.0704 1.8252-1.8305.5352.5352c.1338.135.2931.2421.4685.3152.1755.0731.3637.1108.5537.1108.1901 0 .3783-.0377.5538-.1108.1754-.0731.3347-.1802.4685-.3152.2707-.2735.4225-.6428.4225-1.0276s-.1518-.754-.4225-1.0276z"/></g></svg>