<svg fill="none" height="32" viewBox="0 0 32 32" width="32" xmlns="http://www.w3.org/2000/svg"><circle cx="16" cy="16" fill="#f7f8f9" r="16"/><g fill="#c2c9d0"><path d="m18.2948 13.0169v-3.41916c0-.42375-.1683-.83015-.468-1.12978-.2996-.29964-.706-.46796-1.1298-.46796h-7.09926c-.42375 0-.83011.16832-1.12975.46796-.29963.29963-.46799.70603-.46799 1.12978v3.41916c0 .4238.16836.8302.46799 1.1298.29964.2996.706.468 1.12975.468h.17576v1.3847c-.00028.0889.02505.1761.07298.251.04793.075.11643.1345.19732.1716.0809.0371.1707.0501.2588.0375.088-.0127.1706-.0503.2378-.1086l1.9865-1.7362h4.1701c.4238 0 .8302-.1684 1.1298-.468.2997-.2996.468-.706.468-1.1298zm-2.5244-.9267h-5.2406c-.1033.0007-.2057-.019-.3013-.058s-.1825-.0966-.25577-.1694c-.07326-.0727-.1314-.1593-.17108-.2546-.03967-.0954-.0601-.1976-.0601-.3009 0-.209.08304-.4095.23086-.5573.14779-.1479.34829-.2309.55739-.2309h5.2406c.209 0 .4095.083.5573.2309.1478.1478.2309.3483.2309.5573 0 .1033-.0205.2055-.0601.3009-.0397.0953-.0978.1819-.1711.2546-.0733.0728-.1602.1304-.2558.1694s-.198.0587-.3012.058z"/><path d="m22.4041 15.5195h-7.0993c-.4238 0-.8302.1684-1.1298.468s-.468.706-.468 1.1298v3.4192c0 .4237.1684.8301.468 1.1297.2996.2997.706.468 1.1298.468h4.1701l1.9865 1.7362c.0672.0583.1498.096.2378.1086.0881.0126.178-.0004.2588-.0375.0809-.037.1494-.0966.1973-.1715.048-.075.0733-.1621.073-.2511v-1.3847h.1758c.4237 0 .8301-.1683 1.1297-.468.2997-.2996.468-.706.468-1.1297v-3.4192c0-.2098-.0413-.4176-.1216-.6115-.0803-.1938-.198-.3699-.3464-.5183-.1483-.1484-.3245-.266-.5183-.3463-.1939-.0803-.4016-.1217-.6114-.1217zm-.932 4.0903h-5.2406c-.1033.0007-.2057-.019-.3013-.0581-.0956-.039-.1825-.0966-.2558-.1693-.0732-.0728-.1314-.1594-.171-.2547-.0397-.0953-.0602-.1976-.0602-.3009 0-.1035.0204-.2059.0601-.3016.0396-.0956.0976-.1825.1708-.2557s.1601-.1313.2557-.1709c.0957-.0396.1981-.06.3017-.06h5.2406c.209 0 .4095.0831.5573.2309s.2309.3483.2309.5573c0 .1033-.0205.2056-.0601.3009-.0397.0953-.0978.1819-.1711.2547-.0733.0727-.1602.1303-.2558.1693-.0956.0391-.198.0588-.3012.0581z"/></g></svg>