<svg fill="none" height="32" viewBox="0 0 32 32" width="32" xmlns="http://www.w3.org/2000/svg" xmlns:xlink="http://www.w3.org/1999/xlink"><clipPath id="a"><path d="m8 8h16v16h-16z"/></clipPath><circle cx="16" cy="16" fill="#f7f8f9" r="16"/><g clip-path="url(#a)" fill="#c2c9d0"><path d="m23.8353 9.98994-1.472-1.25908c-.1029-.08687-.2334-.13417-.368-.13338h-7.376c-.1335-.00054-.2624.04903-.3611.13892-.0988.08989-.1602.21358-.1723.3466v2.5235c.0121.133.0735.2567.1723.3466.0987.0899.2276.1394.3611.1389h7.376c.1346.0008.2651-.0465.368-.1334l1.472-1.259c.0525-.0431.0947-.0973.1237-.1586.029-.0614.0441-.1284.0441-.1963 0-.0678-.0151-.1348-.0441-.1962-.029-.0613-.0712-.1155-.1237-.15856z"/><path d="m19.7819 14.3859c-.0999-.0882-.2293-.1358-.3626-.1333h-4.8c-.1335-.0006-.2624.0491-.3611.1389-.0988.0899-.1602.2136-.1723.3466v2.5448c.0121.1331.0735.2567.1723.3466.0987.0899.2276.1395.3611.1389h4.8c.1326.004.2619-.0417.3626-.128l1.4774-1.2644c.0523-.0425.0946-.0962.1236-.1572.029-.0609.0441-.1275.0441-.1949 0-.0675-.0151-.1341-.0441-.195s-.0713-.1147-.1236-.1572z"/><path d="m17.6806 20.0412c-.1008-.0863-.2301-.1319-.3627-.128h-2.6986c-.1335-.0005-.2624.049-.3611.1389-.0988.0899-.1602.2135-.1723.3465v2.5235c.0121.1331.0735.2568.1723.3466.0987.0899.2276.1395.3611.139h2.6986c.1328-.0005.2612-.0477.3627-.1334l1.472-1.2644c.0524-.0426.0946-.0962.1236-.1571s.0441-.1276.0441-.1951c0-.0674-.0151-.134-.0441-.195-.029-.0609-.0712-.1145-.1236-.157z"/><path d="m10.3523 19.3159c-.62093 0-1.21645.2467-1.65553.686-.43909.4392-.68578 1.0349-.68578 1.656-.0007.3078.05938.6127.17679.8972.11742.2845.28987.5429.50742.7606.21756.2176.47594.3901.76032.5076.28438.1174.58918.1775.89678.1768.3075 0 .612-.0606.896-.1783.2841-.1177.5422-.2902.7596-.5077s.3899-.4757.5076-.7598c.1176-.2842.1782-.5888.1782-.8964-.0014-.6207-.2485-1.2156-.6873-1.6545s-1.0335-.6861-1.6541-.6875z"/><path d="m10.3413 12.6896c.621 0 1.2165-.2468 1.6556-.686s.6858-1.035.6858-1.6562c.0007-.308-.0594-.61315-.1767-.89792-.1174-.28478-.2897-.5436-.5072-.76165s-.4758-.39099-.7603-.50902c-.2844-.11804-.5892-.17884-.8972-.17884-.62141.00141-1.21695.24934-1.65588.68942-.43894.44008-.68542 1.03638-.68542 1.65801.00141.6208.24852 1.2157.6873 1.6546.43879.4389 1.03351.6861 1.654.6876z"/><path d="m10.3413 18.3501c.621 0 1.2165-.2467 1.6556-.686.4391-.4392.6858-1.0349.6858-1.6561.0007-.3078-.0594-.6126-.1768-.8971-.1175-.2845-.2899-.543-.5074-.7606-.2176-.2176-.476-.3901-.7603-.5075-.2844-.1175-.5892-.1776-.8969-.1769-.62092 0-1.21647.2468-1.65556.686-.43908.4392-.68574 1.0349-.68574 1.6561.00141.6207.24852 1.2157.6873 1.6546s1.03351.6861 1.654.6875z"/></g></svg>