<svg fill="none" height="32" viewBox="0 0 32 32" width="32" xmlns="http://www.w3.org/2000/svg" xmlns:xlink="http://www.w3.org/1999/xlink"><clipPath id="a"><path d="m8 8h16v16h-16z"/></clipPath><circle cx="16" cy="16" fill="#f7f8f9" r="16"/><g clip-path="url(#a)" fill="#c2c9d0"><path d="m15.104 18.9245c-.0691-.0554-.1525-.09-.2405-.1s-.177.0052-.2568.0437c-.0797.0384-.147.0987-.194.1737-.0469.0751-.0717.1619-.0714.2505v1.3008h-2.816c-.5049 0-.9892-.2005-1.3463-.5574-.35706-.357-.55767-.8411-.55767-1.3459.0014-.5044.20248-.9877.55927-1.3443.3567-.3567.8402-.5577 1.3447-.5591h8.9867c.9293 0 1.8206-.369 2.4777-1.026.6571-.6569 1.0263-1.5478 1.0263-2.4768s-.3692-1.82-1.0263-2.4769-1.5484-1.02596-2.4777-1.02596h-7.4666c-.1684-.51869-.4961-.97103-.9366-1.29267s-.9713-.49618-1.5168-.49873c-.68744 0-1.34672.273-1.83281.75893-.4861.48593-.75918 1.14499-.75918 1.83223-.00071.3404.06585.6777.19586.9924s.32092.6006.56175.8413c.24083.2408.52684.4317.84164.5616.31479.13.65214.1965.99274.1958.5457-.0017 1.0768-.1759 1.5175-.4977.4406-.3217.7682-.7746.9359-1.2937h7.4666c.505 0 .9893.2005 1.3463.5575.3571.357.5577.8411.5577 1.3459s-.2006.9889-.5577 1.3458c-.357.357-.8413.5575-1.3463.5575h-8.9867c-.9289.0015-1.81929.371-2.47611 1.0276s-1.02645 1.5467-1.02786 2.4753c0 .929.36917 1.8199 1.0263 2.4769.65713.6569 1.54837 1.0259 2.47767 1.0259h2.816v1.3222c-.0003.0886.0245.1754.0714.2505.047.075.1143.1353.194.1737.0798.0385.1688.0536.2568.0436.088-.0099.1714-.0445.2405-.0999l2.6667-2.1326c.0545-.044.0985-.0996.1288-.1628.0302-.0632.0459-.1324.0459-.2024 0-.0701-.0157-.1392-.0459-.2024-.0303-.0632-.0743-.1188-.1288-.1628z"/><path d="m21.4077 23.9948c1.4315 0 2.592-1.1601 2.592-2.5912 0-1.431-1.1605-2.5911-2.592-2.5911s-2.592 1.1601-2.592 2.5911c0 1.4311 1.1605 2.5912 2.592 2.5912z"/></g></svg>