<svg fill="none" height="32" viewBox="0 0 32 32" width="32" xmlns="http://www.w3.org/2000/svg"><circle cx="16" cy="16" fill="#f7f8f9" r="16"/><g fill="#c2c9d0"><path d="m15.9972 10.7351c.4425 0 .7998-.3573.7998-.79977v-1.13561c0-.44251-.3573-.79972-.7998-.79972s-.7997.35721-.7997.79972v1.13561c0 .44247.3572.79977.7997.79977z"/><path d="m11.1458 12.276c.3145.3146.821.3146 1.1302 0 .3146-.3145.3146-.821 0-1.1302l-.7997-.7998c-.3146-.3145-.821-.3145-1.1303 0-.3145.3146-.3145.8211 0 1.1303z"/><path d="m10.7351 15.9972c0-.4425-.3573-.7997-.79977-.7997h-1.13561c-.44251 0-.79972.3572-.79972.7997s.35721.7998.79972.7998h1.13561c.44247 0 .79977-.3573.79977-.7998z"/><path d="m11.1458 19.7242-.7998.7997c-.3145.3146-.3145.8211 0 1.1303.3146.3146.8211.3146 1.1303 0l.7997-.7997c.3146-.3146.3146-.8211 0-1.1303-.3145-.3146-.821-.3146-1.1302 0z"/><path d="m20.8544 19.7242c-.3146-.3146-.8211-.3146-1.1303 0-.3146.3146-.3146.8211 0 1.1303l.7997.7997c.3146.3146.8211.3146 1.1303 0 .3145-.3146.3145-.821 0-1.1303z"/><path d="m23.2 15.1975h-1.1356c-.4425 0-.7998.3572-.7998.7997s.3573.7998.7998.7998h1.1356c.4425 0 .7997-.3573.7997-.7998s-.3572-.7997-.7997-.7997z"/><path d="m20.8544 12.276.7997-.7997c.3145-.3146.3145-.821 0-1.1303-.3146-.3145-.8211-.3145-1.1303 0l-.7997.7998c-.3146.3145-.3146.821 0 1.1302.3145.3146.821.3146 1.1303 0z"/><path d="m14.5468 22.9976c0 .5545.4478 1.0023 1.0023 1.0023h.901c.5545 0 1.0023-.4478 1.0023-1.0023v-.3892h-2.9056v.3839z"/><path d="m20.3051 16.0452c0-.7251-.1813-1.4395-.5331-2.0739-.3519-.6345-.8584-1.173-1.4715-1.5622s-1.3169-.6131-2.042-.6611c-.7251-.0426-1.4502.096-2.1059.4052-.6558.3092-1.2263.7837-1.6475 1.3702-.4265.5865-.6931 1.2742-.7837 1.994-.0906.7197.0053 1.4502.2772 2.1273.2719.6717.7038 1.2689 1.2689 1.7274.6452.5278 1.0823 1.2635 1.2263 2.0846.0213.1173.0213.2346.032.3519h2.943c.0053-.1173.0106-.2346.0319-.3519.1493-.8264.5918-1.5675 1.2423-2.0953.4905-.4052.885-.9117 1.1569-1.4822.2719-.5758.4105-1.1995.4105-1.834zm-5.0969-1.6261c0-.4372.3519-.7891.7891-.7891.4371 0 .789.3519.789.7891v2.4685c0 .4372-.3519.789-.789.789-.4372 0-.7891-.3518-.7891-.789zm.7784 5.4968c-.4318 0-.7944-.3252-.7944-.7838 0-.4585.3626-.7624.7944-.7624.4319 0 .8104.3253.8104.7624 0 .4372-.3679.7838-.8104.7838z"/></g></svg>